<svg width="108" height="32" viewBox="0 0 108 32" fill="none" xmlns="http://www.w3.org/2000/svg">
<g clip-path="url(#clip0_762_150)">
<path d="M1.57617 21.3301L11.478 16.5117L17.1773 20.1255L18.3287 31.9812L11.3053 31.9177L12.3415 23.6757L11.1326 22.915L5.20298 27.9872L1.57617 21.3301Z" fill="#C9D6FE"/>
<path d="M17.8105 19.6165L26.5611 26.6538L30.0152 19.8701L22.9916 16.7635V15.242L30.0152 12.0719L26.5611 5.35156L17.8105 12.389V19.6165Z" fill="#AB29A1"/>
<path d="M17.1773 11.8191L18.3287 -0.0366211L11.3053 0.0901416L12.3415 8.33214L11.1326 9.09294L5.14542 4.02094L1.57617 10.6145L11.478 15.4329L17.1773 11.8191Z" fill="#255BF9"/>
</g>
<path d="M38.8267 23H36.4972L41.7315 8.45455H44.267L49.5014 23H47.1719L43.0597 11.0966H42.946L38.8267 23ZM39.2173 17.304H46.7741V19.1506H39.2173V17.304ZM51.3691 23V12.0909H53.4927V23H51.3691ZM52.4416 10.4077C52.0722 10.4077 51.755 10.2846 51.4899 10.0384C51.2294 9.7874 51.0992 9.48911 51.0992 9.14347C51.0992 8.79309 51.2294 8.49479 51.4899 8.24858C51.755 7.99763 52.0722 7.87216 52.4416 7.87216C52.8109 7.87216 53.1257 7.99763 53.3862 8.24858C53.6513 8.49479 53.7839 8.79309 53.7839 9.14347C53.7839 9.48911 53.6513 9.7874 53.3862 10.0384C53.1257 10.2846 52.8109 10.4077 52.4416 10.4077ZM56.1896 23V12.0909H58.2421V13.8239H58.3558C58.5546 13.2367 58.905 12.7751 59.4069 12.4389C59.9135 12.098 60.4865 11.9276 61.1257 11.9276C61.2582 11.9276 61.4145 11.9323 61.5944 11.9418C61.7791 11.9512 61.9235 11.9631 62.0277 11.9773V14.0085C61.9424 13.9848 61.7909 13.9588 61.5731 13.9304C61.3553 13.8973 61.1375 13.8807 60.9197 13.8807C60.4178 13.8807 59.9704 13.9872 59.5774 14.2003C59.1891 14.4086 58.8813 14.6998 58.6541 15.0739C58.4268 15.4432 58.3132 15.8646 58.3132 16.3381V23H56.1896ZM69.5417 12.0909V13.7955H63.3769V12.0909H69.5417ZM65.0672 23V10.8267C65.0672 10.1449 65.2164 9.57907 65.5147 9.12926C65.813 8.67472 66.2083 8.33617 66.7008 8.11364C67.1932 7.88636 67.7282 7.77273 68.3059 7.77273C68.732 7.77273 69.0966 7.80824 69.3996 7.87926C69.7026 7.94555 69.9276 8.0071 70.0743 8.06392L69.5772 9.78267C69.4777 9.75426 69.3499 9.72112 69.1937 9.68324C69.0374 9.64062 68.848 9.61932 68.6255 9.61932C68.1094 9.61932 67.7401 9.74716 67.5175 10.0028C67.2997 10.2585 67.1908 10.6278 67.1908 11.1108V23H65.0672ZM75.7382 23.2202C74.7155 23.2202 73.823 22.9858 73.0606 22.517C72.2983 22.0483 71.7065 21.3925 71.2851 20.5497C70.8637 19.7069 70.653 18.7221 70.653 17.5952C70.653 16.4635 70.8637 15.474 71.2851 14.6264C71.7065 13.7789 72.2983 13.1207 73.0606 12.652C73.823 12.1832 74.7155 11.9489 75.7382 11.9489C76.7609 11.9489 77.6534 12.1832 78.4158 12.652C79.1781 13.1207 79.7699 13.7789 80.1913 14.6264C80.6127 15.474 80.8234 16.4635 80.8234 17.5952C80.8234 18.7221 80.6127 19.7069 80.1913 20.5497C79.7699 21.3925 79.1781 22.0483 78.4158 22.517C77.6534 22.9858 76.7609 23.2202 75.7382 23.2202ZM75.7453 21.4375C76.4082 21.4375 76.9574 21.2623 77.393 20.9119C77.8286 20.5616 78.1506 20.0952 78.3589 19.5128C78.572 18.9304 78.6785 18.2888 78.6785 17.5881C78.6785 16.892 78.572 16.2528 78.3589 15.6705C78.1506 15.0833 77.8286 14.6122 77.393 14.2571C76.9574 13.902 76.4082 13.7244 75.7453 13.7244C75.0777 13.7244 74.5237 13.902 74.0834 14.2571C73.6478 14.6122 73.3234 15.0833 73.1104 15.6705C72.902 16.2528 72.7979 16.892 72.7979 17.5881C72.7979 18.2888 72.902 18.9304 73.1104 19.5128C73.3234 20.0952 73.6478 20.5616 74.0834 20.9119C74.5237 21.2623 75.0777 21.4375 75.7453 21.4375ZM85.1574 8.45455V23H83.0338V8.45455H85.1574ZM87.8543 23V12.0909H89.9779V23H87.8543ZM88.9267 10.4077C88.5574 10.4077 88.2402 10.2846 87.975 10.0384C87.7146 9.7874 87.5844 9.48911 87.5844 9.14347C87.5844 8.79309 87.7146 8.49479 87.975 8.24858C88.2402 7.99763 88.5574 7.87216 88.9267 7.87216C89.296 7.87216 89.6109 7.99763 89.8713 8.24858C90.1365 8.49479 90.269 8.79309 90.269 9.14347C90.269 9.48911 90.1365 9.7874 89.8713 10.0384C89.6109 10.2846 89.296 10.4077 88.9267 10.4077ZM97.2699 23.2202C96.2472 23.2202 95.3547 22.9858 94.5924 22.517C93.83 22.0483 93.2382 21.3925 92.8168 20.5497C92.3954 19.7069 92.1847 18.7221 92.1847 17.5952C92.1847 16.4635 92.3954 15.474 92.8168 14.6264C93.2382 13.7789 93.83 13.1207 94.5924 12.652C95.3547 12.1832 96.2472 11.9489 97.2699 11.9489C98.2926 11.9489 99.1852 12.1832 99.9475 12.652C100.71 13.1207 101.302 13.7789 101.723 14.6264C102.144 15.474 102.355 16.4635 102.355 17.5952C102.355 18.7221 102.144 19.7069 101.723 20.5497C101.302 21.3925 100.71 22.0483 99.9475 22.517C99.1852 22.9858 98.2926 23.2202 97.2699 23.2202ZM97.277 21.4375C97.9399 21.4375 98.4891 21.2623 98.9247 20.9119C99.3604 20.5616 99.6823 20.0952 99.8907 19.5128C100.104 18.9304 100.21 18.2888 100.21 17.5881C100.21 16.892 100.104 16.2528 99.8907 15.6705C99.6823 15.0833 99.3604 14.6122 98.9247 14.2571C98.4891 13.902 97.9399 13.7244 97.277 13.7244C96.6094 13.7244 96.0554 13.902 95.6151 14.2571C95.1795 14.6122 94.8551 15.0833 94.6421 15.6705C94.4337 16.2528 94.3296 16.892 94.3296 17.5881C94.3296 18.2888 94.4337 18.9304 94.6421 19.5128C94.8551 20.0952 95.1795 20.5616 95.6151 20.9119C96.0554 21.2623 96.6094 21.4375 97.277 21.4375Z" fill="#1C1C57"/>
<defs>
<clipPath id="clip0_762_150">
<rect width="32" height="32" fill="white"/>
</clipPath>
</defs>
</svg>
