<svg width="66" height="74" viewBox="0 0 66 74" fill="none" xmlns="http://www.w3.org/2000/svg">
<path fill-rule="evenodd" clip-rule="evenodd" d="M31.6005 3.98608C28.1405 4.45308 22.4875 8.04608 21.7075 10.252C24.9835 8.17608 28.1095 6.19708 31.6005 3.98608ZM38.7935 7.59708C37.8575 8.09208 36.9145 8.54508 36.0175 9.07408C32.9025 10.913 29.5475 12.465 26.7725 14.726C24.1685 16.848 22.1755 19.722 19.9335 22.283C18.8605 23.508 17.6165 24.649 16.8245 26.042C13.0085 32.747 9.35548 39.616 8.86148 47.472C8.60548 51.55 9.22648 55.724 9.86048 59.791C10.0385 60.939 11.4715 62.341 12.6525 62.81C19.4645 65.509 26.4965 66.125 33.3205 63.1C46.1095 57.428 52.9575 46.831 56.3605 33.776C57.9665 27.617 57.6575 21.618 52.1455 17.108C51.0935 16.247 49.9565 15.484 48.9395 14.584C48.4355 14.137 47.7145 13.434 47.7765 12.931C48.1745 9.72004 46.4945 8.58408 43.6535 8.45308C42.4825 8.39908 41.2995 8.46208 40.1445 8.30908C39.6075 8.23808 39.1215 7.77908 38.7935 7.59708ZM65.7225 33.025C65.2825 39.997 63.4815 46.55 59.6705 52.505C58.0325 55.064 56.6445 57.785 54.9505 60.302C54.2235 61.382 52.9475 62.073 52.0215 63.038C47.2715 67.986 41.9235 71.961 34.9895 73.174C25.5205 74.832 16.5975 73.56 8.61147 67.818C2.35747 63.32 -0.166525 56.637 0.00847533 49.524C0.417475 32.917 7.29247 19.08 20.1195 8.39808C22.6625 6.27908 25.4565 4.35208 28.3925 2.83208C35.7385 -0.973921 42.9975 -0.141921 49.8465 4.20508C54.4575 7.13308 58.0455 11.051 60.1705 16.202C60.7545 17.619 61.6025 18.929 62.3575 20.274C64.5765 24.229 66.0105 28.386 65.7225 33.025Z" fill="#9DB5FC"/>
</svg>
