<svg width="61" height="66" viewBox="0 0 61 66" fill="none" xmlns="http://www.w3.org/2000/svg">
<path fill-rule="evenodd" clip-rule="evenodd" d="M39.4159 9.38079C39.4665 9.58564 39.5049 9.75575 39.6958 9.79321C39.7574 9.8055 39.8294 9.71176 39.8161 9.63196C39.7832 9.43397 39.6261 9.40333 39.4159 9.38079ZM46.617 54.9198C46.4833 55.0638 46.6071 55.2257 46.4393 55.292C46.3944 55.3097 46.7631 55.5287 46.7936 55.4493C46.8702 55.2512 46.6422 55.1502 46.617 54.9198ZM47.5221 43.1609C47.2676 42.8924 47.3018 42.4535 46.9053 42.1747C47.0626 42.5973 47.2486 42.9063 47.5221 43.1609ZM45.5559 38.2953C45.4108 37.9957 45.276 37.6736 44.826 37.5096C45.0194 37.9002 45.2643 38.1128 45.5559 38.2953ZM48.3667 43.932C48.1894 43.489 48.0525 43.0272 47.6133 42.7198C47.833 43.1689 47.9956 43.6165 48.3667 43.932ZM49.9033 29.3923C50.1455 29.9649 50.2411 30.6131 50.76 31.0421C50.4159 30.5224 50.2582 29.9065 49.9033 29.3923ZM39.8182 8.54824L39.7573 8.63345C40.3569 9.14049 40.9567 9.6471 41.5565 10.1537C41.5762 10.1301 41.5958 10.1065 41.6156 10.0832C41.0981 9.47531 40.4435 9.02866 39.8182 8.54824ZM58.59 60.9124C58.9997 60.2409 58.9483 59.9926 58.2793 59.8301C58.6832 60.1555 58.2027 60.6173 58.59 60.9124ZM51.4571 32.9464C51.6326 33.786 52.2045 34.3996 52.6588 35.0823C52.4189 34.2812 51.919 33.6271 51.4571 32.9464ZM51.07 64.3656C50.0521 63.6063 49.0568 62.8187 48.1035 61.9785C48.9591 62.9382 49.9476 63.7345 51.07 64.3656ZM39.248 39.1072C39.7978 39.9847 40.4148 40.8134 41.0718 41.6124C40.6332 40.6532 40.1182 39.7506 39.248 39.1072ZM56.7638 63.6543C57.0076 63.6352 57.1187 63.5277 57.2315 63.4301C57.832 62.9112 58.1446 62.2101 58.4463 61.5024C58.5861 61.1742 58.5748 61.1372 58.2551 60.8569C58.3925 61.7769 58.0655 62.352 57.4654 62.2377C57.4387 62.437 57.464 62.8102 57.3154 62.7866C56.9281 62.7252 57.0622 63.0062 57.018 63.14C56.9642 63.304 56.9606 63.4841 56.7638 63.6543ZM33.0926 6.39551C35.2524 7.33874 37.3798 8.35664 39.5967 9.16494C37.7129 7.58065 35.5056 6.74864 33.0926 6.39551ZM55.9374 36.4356C55.8887 35.8652 55.7224 35.3931 55.5603 34.9271C54.2399 31.1326 52.3352 27.6032 50.62 23.9875C50.6681 24.2843 55.7078 36.0153 55.9374 36.4356ZM40.4426 44.5464C40.5093 44.8675 40.552 45.1942 40.8535 45.411C40.9452 45.477 40.9348 45.6211 40.921 45.7327C40.896 45.936 41.0253 46.1121 41.151 46.1627C41.3634 46.2483 41.3699 46.4159 41.4321 46.5688C41.4741 46.6719 41.47 46.7868 41.5379 46.8869C42.0245 47.6032 42.2876 48.4352 42.7179 49.1806C42.8941 49.4861 42.9169 49.8681 43.2249 50.1137C43.3236 50.1924 43.5387 50.2119 43.5105 50.3662C43.483 50.518 43.2465 50.3266 43.157 50.5118C43.5758 50.6356 43.9153 50.888 44.0619 51.2935C44.1839 51.6315 44.5933 51.933 44.224 52.3721C44.4419 52.1118 44.5871 52.1176 44.751 52.3587C44.9428 52.6405 45.0795 52.9547 45.2628 53.2359C45.4088 53.4599 45.6501 53.6441 45.703 53.9086C45.7765 54.2767 46.2844 54.4009 46.1927 54.8531C46.1799 54.9166 46.3082 55.0054 46.4201 54.8884C46.5567 54.7456 46.5121 54.41 46.3144 54.3003C46.0504 54.1539 46.0897 53.7821 45.8137 53.6504C46.057 53.3586 45.744 53.3032 45.6118 53.1687C45.5815 53.138 45.5298 53.1121 45.56 53.0458C45.6616 52.8228 45.5069 52.5902 45.6503 52.3127C45.4575 52.3874 45.3609 52.6294 45.2529 52.4963C45.1136 52.3244 45.4368 52.2723 45.4429 52.0738C45.2158 52.1165 45.0973 52.0035 45.0517 51.7856C44.9105 51.1118 44.4217 50.6386 44.0435 50.1084C43.8232 49.7993 43.6393 49.4639 43.4786 49.1374C43.1937 48.5579 42.8219 48.0292 42.4952 47.4842C42.1088 46.8395 41.687 46.2018 41.2525 45.5817C41.0041 45.2277 40.8559 44.7798 40.4379 44.5558C40.2365 44.0343 40.0243 43.8707 39.6999 43.9978C39.9721 44.1535 40.0901 44.5056 40.4426 44.5464ZM41.0039 7.66918C41.5507 7.94287 41.9725 8.36774 42.3615 8.82302C42.6602 9.17237 42.9016 9.57194 43.3385 9.78406C43.4221 9.82484 43.5515 9.89289 43.495 10.0402C43.4577 10.1378 43.5108 10.2056 43.587 10.1931C43.8391 10.1509 43.8705 10.2933 43.8777 10.4875C43.8826 10.627 43.9306 10.6936 44.03 10.5292C44.111 10.6054 44.2004 10.6744 44.2722 10.7584C45.4406 12.1241 46.583 13.5111 47.5824 15.0083C48.1091 15.7981 48.8148 16.4337 49.4051 17.1706C50.494 18.5291 51.3082 20.0317 52.0249 21.6092C52.4585 22.5632 52.8059 23.5561 53.2587 24.4909C54.1861 26.4065 55.0126 28.3675 55.9393 30.2813C56.5244 31.4905 57.0524 32.7219 57.5766 33.9565C58.0553 35.084 58.3326 36.2628 58.5535 37.4673C58.908 39.4047 59.3295 41.33 59.7565 43.2536C60.5006 46.6068 60.9081 50.001 60.8797 53.4404C60.8621 55.586 60.6595 57.7132 60.1478 59.8017C59.7893 61.2642 59.2677 62.6628 58.3666 63.8886C57.0264 65.712 55.1599 66.3139 52.9587 65.6673C51.2745 65.1726 49.8954 64.1716 48.6008 63.0412C46.2507 60.9889 44.6249 58.4243 43.3813 55.5919C42.5308 53.6551 41.786 51.6767 41.0242 49.7047C40.7193 48.9152 40.1948 48.2568 39.7403 47.5533C38.9079 46.2651 38.0329 45.0075 37.1453 43.7584C36.7824 43.2475 36.3919 42.7542 35.9046 42.3517C35.6425 42.1354 35.5146 41.7886 35.1608 41.6529C34.9885 41.5868 35 41.3842 35.0259 41.1968C35.0541 40.9928 35.0383 40.755 34.7135 40.8695C34.3699 40.9908 34.0755 40.9089 33.8681 40.5677C33.7741 40.4131 33.6888 40.2945 33.4997 40.2833C33.4756 40.282 33.4347 40.272 33.4311 40.2582C33.3329 39.8864 32.959 39.8926 32.7192 39.716C32.1556 39.3011 31.5711 38.9158 31.0147 38.4922C30.6425 38.2088 30.2329 37.9791 29.85 37.7138C29.674 37.5919 29.4808 37.4354 29.2763 37.3483C29.0397 37.2478 28.8245 37.114 28.5947 37.0062C28.059 36.7555 27.6306 36.3403 27.1001 36.0737C26.458 35.7508 25.7724 35.5552 25.1138 35.2833C23.3582 34.5593 21.5629 33.9214 19.9148 32.9619C18.4674 32.1195 17.4595 30.8766 16.7544 29.3696C16.3947 28.6009 15.8267 27.9704 15.3344 27.2888C14.8365 26.599 14.2315 26.017 13.6036 25.4624C13.2183 25.1221 12.693 24.9992 12.2077 24.822C10.8043 24.3095 9.32866 23.9277 8.08699 23.0777C7.03921 22.3604 5.95695 21.6805 5.02065 20.7974C4.04804 19.8798 3.16854 18.8941 2.52006 17.7271C1.48865 15.8708 0.833273 13.914 0.849006 11.7436C0.85631 10.7446 0.982617 9.78142 1.24909 8.83924C1.59404 7.62038 2.19392 6.5137 2.93596 5.48384C4.16286 3.78117 5.86128 2.72897 7.75174 1.92076C8.67503 1.52574 9.61213 1.18061 10.6015 1.01748C10.9992 0.951985 11.4304 0.931727 11.8056 0.847604C12.8175 0.621101 13.8153 0.713297 14.8127 0.789911C15.8657 0.870376 16.9119 1.04261 17.9583 1.20434C18.7306 1.32389 19.4663 1.60247 20.252 1.65242C20.5337 1.67062 20.8069 1.82451 21.0828 1.92083C21.4047 2.03288 21.7469 1.97817 22.0781 2.06664C23.2278 2.37374 24.3901 2.63306 25.5411 2.9361C27.5583 3.46717 29.6246 3.73168 31.6735 4.09274C32.5633 4.24944 33.454 4.40115 34.3441 4.5574C34.8477 4.64593 35.3391 4.8 35.829 4.93423C36.1153 5.0126 36.4134 5.18852 36.7022 5.3014C37.1137 5.46198 37.4603 5.79487 37.9451 5.78064C38.2008 5.77327 38.4248 5.88078 38.6021 6.08995C38.8158 6.34213 39.1957 6.35507 39.4088 6.61786C39.9403 6.96824 40.4722 7.31849 41.0039 7.66918Z" fill="#595984"/>
</svg>
